<svg xmlns="http://www.w3.org/2000/svg" xmlns:xlink="http://www.w3.org/1999/xlink" width="290.263" height="48" viewBox="0 0 290.263 48">
  <defs>
    <filter id="إنشاء_حساب_جديد_" x="70.219" y="0" width="214" height="48" filterUnits="userSpaceOnUse">
      <feOffset dy="2" input="SourceAlpha"/>
      <feGaussianBlur stdDeviation="2" result="blur"/>
      <feFlood flood-opacity="0.235"/>
      <feComposite operator="in" in2="blur"/>
      <feComposite in="SourceGraphic"/>
    </filter>
  </defs>
  <g id="Group_5" data-name="Group 5" transform="translate(-33.781 -138)">
    <g transform="matrix(1, 0, 0, 1, 33.78, 138)" filter="url(#إنشاء_حساب_جديد_)">
      <text id="إنشاء_حساب_جديد_2" data-name="إنشاء حساب جديد " transform="translate(177.22 33)" fill="#4f3c75" font-size="27" font-family="SegoeUI-Bold, Segoe UI" font-weight="700"><tspan x="-100.222" y="0">إنشاء حساب جديد</tspan><tspan y="0"> </tspan></text>
    </g>
    <g id="Group_4" data-name="Group 4" transform="translate(33.781 43.407)">
      <ellipse id="Ellipse_11" data-name="Ellipse 11" cx="145.131" cy="2.763" rx="145.131" ry="2.763" transform="translate(0 134.568)" fill="#e6e6e6"/>
      <path id="Path_115" data-name="Path 115" d="M318.4,636.257c-1.886,6.3,1.041,12.742,1.041,12.742s5.985-3.773,7.871-10.074-1.041-12.742-1.041-12.742S320.282,629.957,318.4,636.257Z" transform="translate(-278.41 -511.889)" fill="#e6e6e6"/>
      <path id="Path_116" data-name="Path 116" d="M303.458,635.864c1.587,6.382-1.64,12.679-1.64,12.679s-5.8-4.051-7.388-10.433,1.64-12.679,1.64-12.679S301.871,629.482,303.458,635.864Z" transform="translate(-260.609 -511.326)" fill="#e6e6e6"/>
    </g>
  </g>
</svg>
